<svg version="1.1" xmlns="http://www.w3.org/2000/svg" viewBox="0 0 785.7196044921875 270.3011779785156" width="1571.439208984375" height="540.6023559570312">
  <!-- svg-source:excalidraw -->
  
  <defs>
    <style>
      @font-face {
        font-family: "Virgil";
        src: url("https://excalidraw.com/Virgil.woff2");
      }
      @font-face {
        font-family: "Cascadia";
        src: url("https://excalidraw.com/Cascadia.woff2");
      }
    </style>
  </defs>
  <rect x="0" y="0" width="785.7196044921875" height="270.3011779785156" fill="#ffffff"></rect><g stroke-linecap="round" transform="translate(146.54693603515625 10) rotate(0 314.5863342285156 115.6385498046875)"><path d="M-0.18 -0.03 C186.07 -1.06, 371.3 -2.38, 629.72 -0.8 M-0.18 0.14 C215.43 -1.33, 430.84 -1.59, 629.34 0.01 M630.49 0.6 C628.65 54.09, 627.17 109.22, 630.22 232.48 M629.31 -0.37 C630.27 79.54, 630.37 160.24, 628.34 230.7 M628.81 231.23 C418.59 231.3, 206.14 230.32, 0.37 231 M629.36 231.22 C428.59 230.96, 228 231.28, -0.38 231.27 M0.79 231.84 C0.35 182.89, -0.42 136.27, 0.24 1.5 M-0.83 230.49 C1.44 148.71, 2.04 64.45, 0.03 -0.77" stroke="#e67700" stroke-width="1" fill="none"></path></g><g stroke-linecap="round" transform="translate(159.30181884765625 69.65460205078125) rotate(0 42.06732177734375 22.468719482421875)"><path d="M1.23 1.41 C19.63 2.34, 36.49 1.11, 83.26 -1 M-0.98 -0.68 C21 -1.09, 41.17 -0.68, 84.07 0.69 M85.05 -0.7 C84.08 13.61, 83.58 31.51, 83.85 45.43 M83.18 -0.03 C83.42 12.43, 83.8 23.99, 84.47 45.92 M84.42 46.71 C63.58 43.86, 41.54 43.17, -1.86 45.43 M84.17 44.03 C53.06 45.21, 21.97 44.83, 0.25 44.77 M1.5 43.8 C-1.77 35.24, 1.35 25.33, -0.42 1.97 M0.33 44.04 C-0.31 32.53, -0.69 21.57, 0.11 0.89" stroke="#1864ab" stroke-width="1" fill="none"></path></g><g stroke-linecap="round" transform="translate(164.534423828125 165.18276977539062) rotate(0 42.06732177734375 22.468719482421875)"><path d="M-1.29 0.07 C25.48 -1.07, 56.23 -1.37, 85.01 0.5 M0.85 0.75 C23.29 -1.47, 47.39 0.09, 83.37 -0.21 M82.15 0.66 C82.16 17.7, 82.26 34.86, 83.67 45.15 M84.56 0.34 C83.89 17.03, 83.89 35.07, 83.25 45.11 M85.94 44.45 C53.88 46.39, 27.05 45.1, 0 44.33 M84.71 45.73 C62.16 44.78, 40.81 45.89, -0.13 44.74 M0.1 43.45 C0.97 33.89, -1.47 28.15, 1.5 1.7 M-0.08 44.62 C0.32 28.8, 0.58 10.8, -0.41 0.53" stroke="#1864ab" stroke-width="1" fill="none"></path></g><g transform="translate(164.30181884765625 79.62332153320312) rotate(0 37 12.5)"><text x="37" y="18" font-family="Virgil, Segoe UI Emoji" font-size="20px" fill="#1864ab" text-anchor="middle" style="white-space: pre;" direction="ltr">lo</text></g><g transform="translate(169.534423828125 175.1514892578125) rotate(0 37 12.5)"><text x="37" y="18" font-family="Virgil, Segoe UI Emoji" font-size="20px" fill="#1864ab" text-anchor="middle" style="white-space: pre;" direction="ltr">eth0</text></g><g stroke-linecap="round" transform="translate(338.0592041015625 71.68405151367188) rotate(0 63 67.53453063964844)"><path d="M-1.49 0.54 C23.6 -1.97, 52.5 1.43, 127.7 1.54 M-0.31 0.48 C43.11 0.85, 84.37 -0.3, 126.53 -0.4 M125.1 1.03 C125.71 33.45, 124.09 63.48, 124.16 135.18 M125.08 0.85 C125.81 51.05, 126.18 100.21, 126.31 134.88 M127.62 136.16 C88.12 132.91, 54.96 136, 0.5 133.35 M125.41 135.22 C75.47 136.18, 27.1 135.26, 0.04 135.43 M-1.42 133.25 C0.32 101.13, 0.33 68.87, 0.45 1.83 M0.31 134.08 C0.86 105.37, 0.67 74.26, -0.55 0.8" stroke="#0b7285" stroke-width="1" fill="none"></path></g><g transform="translate(343.0592041015625 126.71858215332031) rotate(0 58 12.5)"><text x="58" y="18" font-family="Virgil, Segoe UI Emoji" font-size="20px" fill="#0b7285" text-anchor="middle" style="white-space: pre;" direction="ltr">Proxy</text></g><g stroke-linecap="round" transform="translate(566.4058837890625 69.4520263671875) rotate(0 73.5 68.640380859375)"><path d="M-1.49 -1.12 C52 1.14, 106.89 1.92, 145.36 -0.57 M0.14 -0.28 C33.87 0.45, 66.73 -0.36, 146.13 -1 M146.71 -0.66 C148.11 29.77, 148.46 55.69, 148.97 136.92 M147.49 -0.62 C146.58 32.59, 146.94 66, 147.2 138.2 M147.18 137.26 C111.81 135.93, 76.02 138.85, -1.19 135.29 M146.78 137.76 C100.98 135.96, 53.84 135.57, -0.82 136.31 M-0.3 135.36 C1.05 96.75, -0.75 61.08, 0.41 0.02 M-0.64 136.28 C1.16 97.68, 0.7 57.93, -0.9 0.89" stroke="#5f3dc4" stroke-width="1" fill="none"></path></g><g transform="translate(571.4058837890625 125.5924072265625) rotate(0 68.5 12.5)"><text x="68.5" y="18" font-family="Virgil, Segoe UI Emoji" font-size="20px" fill="#5f3dc4" text-anchor="middle" style="white-space: pre;" direction="ltr">App</text></g><g stroke-linecap="round" transform="translate(339.431640625 170.42166137695312) rotate(0 61.5 17.5)"><path d="M-0.18 -0.85 C37.39 0.82, 74.17 1.02, 124.35 1.63 M123.22 1.69 C123.94 13.78, 122.42 27.13, 122.47 36.63 M122.66 36.16 C88.56 34.63, 55.21 35.97, -1.48 33.19 M1.32 36.58 C0.84 24.39, -0.36 12.63, 0.09 -0.8" stroke="#0b7285" stroke-width="1.5" fill="none" stroke-dasharray="1.5 7"></path></g><g transform="translate(344.431640625 175.42166137695312) rotate(0 56.5 12.5)"><text x="56.5" y="18" font-family="Virgil, Segoe UI Emoji" font-size="20px" fill="#0b7285" text-anchor="middle" style="white-space: pre;" direction="ltr">:8000</text></g><g stroke-linecap="round" transform="translate(22.0262451171875 192.13882446289062) rotate(0 50 18)"><path d="M-0.75 -0.02 C28.53 -0.41, 61.13 1.16, 100.83 1.41 M101.25 -0.34 C99.91 8.58, 101.13 18.01, 101.56 35.61 M100.09 34.83 C75.22 35.06, 47.29 36.82, -1.96 37.89 M-0.97 35.22 C-1.12 23.39, -1.84 11.3, -1.98 -0.98" stroke="#a61e4d" stroke-width="1.5" fill="none" stroke-dasharray="1.5 7"></path></g><g transform="translate(27.0262451171875 197.63882446289062) rotate(0 45 12.5)"><text x="45" y="18" font-family="Virgil, Segoe UI Emoji" font-size="20px" fill="#a61e4d" text-anchor="middle" style="white-space: pre;" direction="ltr">:80</text></g><g stroke-linecap="round" transform="translate(568.7951049804688 167.1034393310547) rotate(0 74 17.5)"><path d="M-1.91 -0.89 C56.34 1.93, 109.54 0.24, 148.88 1.29 M147.76 -0.7 C146.3 10.18, 146.8 21.8, 146.44 34.02 M146.18 34.29 C93.2 33.67, 39.58 35.9, 1.15 35.34 M0.52 34.02 C0.95 21.36, 0.17 7.48, 1.93 -0.98" stroke="#5f3dc4" stroke-width="1.5" fill="none" stroke-dasharray="1.5 7"></path></g><g transform="translate(573.7951049804688 172.1034393310547) rotate(0 69 12.5)"><text x="69" y="18" font-family="Virgil, Segoe UI Emoji" font-size="20px" fill="#5f3dc4" text-anchor="middle" style="white-space: pre;" direction="ltr">:80</text></g><g stroke-linecap="round"><g transform="translate(10 189.3365478515625) rotate(0 67.03984069824219 -1.0490145164787066)"><path d="M0 0 C22.35 -0.35, 111.73 -1.75, 134.08 -2.1 M0 0 C22.35 -0.35, 111.73 -1.75, 134.08 -2.1" stroke="#c92a2a" stroke-width="1" fill="none"></path></g><g transform="translate(10 189.3365478515625) rotate(0 67.03984069824219 -1.0490145164787066)"><path d="M106.05 8.6 C113.88 5.61, 121.71 2.63, 134.08 -2.1 M106.05 8.6 C111.67 6.46, 117.28 4.31, 134.08 -2.1" stroke="#c92a2a" stroke-width="1" fill="none"></path></g><g transform="translate(10 189.3365478515625) rotate(0 67.03984069824219 -1.0490145164787066)"><path d="M105.73 -11.92 C113.65 -9.17, 121.57 -6.43, 134.08 -2.1 M105.73 -11.92 C111.41 -9.95, 117.09 -7.98, 134.08 -2.1" stroke="#c92a2a" stroke-width="1" fill="none"></path></g></g><g stroke-linecap="round"><g transform="translate(468.23085021972656 184.01455478627804) rotate(0 51.08680725097656 -0.6026652859010255)"><path d="M0 0 C17.03 -0.2, 85.14 -1, 102.17 -1.21 M0 0 C17.03 -0.2, 85.14 -1, 102.17 -1.21" stroke="#c92a2a" stroke-width="1" fill="none"></path></g><g transform="translate(468.23085021972656 184.01455478627804) rotate(0 51.08680725097656 -0.6026652859010255)"><path d="M74.11 9.39 C80.49 6.98, 86.87 4.57, 102.17 -1.21 M74.11 9.39 C82.87 6.08, 91.63 2.77, 102.17 -1.21" stroke="#c92a2a" stroke-width="1" fill="none"></path></g><g transform="translate(468.23085021972656 184.01455478627804) rotate(0 51.08680725097656 -0.6026652859010255)"><path d="M73.86 -11.13 C80.3 -8.88, 86.74 -6.62, 102.17 -1.21 M73.86 -11.13 C82.7 -8.03, 91.54 -4.94, 102.17 -1.21" stroke="#c92a2a" stroke-width="1" fill="none"></path></g></g><g transform="translate(423.02880859375 235.30117797851562) rotate(0 18.5 12.5)"><text x="0" y="18" font-family="Virgil, Segoe UI Emoji" font-size="20px" fill="#e67700" text-anchor="start" style="white-space: pre;" direction="ltr">Pod</text></g><g stroke-linecap="round"><g transform="translate(251.35520935058594 184.94305835230728) rotate(0 45.66926574707031 0.23806347386459947)"><path d="M0 0 C15.22 0.08, 76.12 0.4, 91.34 0.48 M0 0 C15.22 0.08, 76.12 0.4, 91.34 0.48" stroke="#c92a2a" stroke-width="1" fill="none"></path></g><g transform="translate(251.35520935058594 184.94305835230728) rotate(0 45.66926574707031 0.23806347386459947)"><path d="M63.09 10.59 C71.47 7.59, 79.84 4.59, 91.34 0.48 M63.09 10.59 C68.98 8.48, 74.87 6.37, 91.34 0.48" stroke="#c92a2a" stroke-width="1" fill="none"></path></g><g transform="translate(251.35520935058594 184.94305835230728) rotate(0 45.66926574707031 0.23806347386459947)"><path d="M63.2 -9.93 C71.54 -6.85, 79.89 -3.76, 91.34 0.48 M63.2 -9.93 C69.07 -7.76, 74.93 -5.59, 91.34 0.48" stroke="#c92a2a" stroke-width="1" fill="none"></path></g></g><g stroke-linecap="round"><g transform="translate(334.47056579589844 90.4993632839479) rotate(0 -44.01866149902344 0.3138996555052245)"><path d="M0 0 C-14.67 0.1, -73.36 0.52, -88.04 0.63 M0 0 C-14.67 0.1, -73.36 0.52, -88.04 0.63" stroke="#c92a2a" stroke-width="1" fill="none"></path></g><g transform="translate(334.47056579589844 90.4993632839479) rotate(0 -44.01866149902344 0.3138996555052245)"><path d="M-59.92 -9.83 C-66.58 -7.36, -73.24 -4.88, -88.04 0.63 M-59.92 -9.83 C-70.78 -5.79, -81.63 -1.76, -88.04 0.63" stroke="#c92a2a" stroke-width="1" fill="none"></path></g><g transform="translate(334.47056579589844 90.4993632839479) rotate(0 -44.01866149902344 0.3138996555052245)"><path d="M-59.77 10.69 C-66.47 8.3, -73.16 5.92, -88.04 0.63 M-59.77 10.69 C-70.69 6.8, -81.6 2.92, -88.04 0.63" stroke="#c92a2a" stroke-width="1" fill="none"></path></g></g><g stroke-linecap="round"><g transform="translate(199.811767578125 43.52374267578125) rotate(0 214.64278329946103 -1.1660126063972598)"><path d="M-2.02 0.61 C69.76 0.55, 358.69 -2.52, 431.3 -2.95 M2.08 -1.52 C73.46 -0.99, 357.36 -0.51, 429.23 -0.1" stroke="#e67700" stroke-width="1" fill="none"></path></g></g><g stroke-linecap="round"><g transform="translate(629.58154296875 42.00799560546875) rotate(0 0.7735206324979913 15.333884849548355)"><path d="M-1.43 2.65 C-1.13 7.09, 1.87 22.65, 2.42 26.93 M2.98 1.62 C2.82 6.26, 0.52 24.21, -0.05 29.05" stroke="#e67700" stroke-width="1" fill="none"></path></g><g transform="translate(629.58154296875 42.00799560546875) rotate(0 0.7735206324979913 15.333884849548355)"><path d="M-0.59 14.06 C-5.26 18.21, -2.72 24.31, -1.07 28.54 M-4.15 13.96 C-3.27 19.41, -0.81 23.93, -0.36 30.03" stroke="#e67700" stroke-width="1" fill="none"></path></g><g transform="translate(629.58154296875 42.00799560546875) rotate(0 0.7735206324979913 15.333884849548355)"><path d="M9.54 15.29 C1.6 18.94, 0.89 24.65, -1.07 28.54 M5.98 15.19 C4.05 20.15, 3.69 24.33, -0.36 30.03" stroke="#e67700" stroke-width="1" fill="none"></path></g></g><g stroke-linecap="round"><g transform="translate(201.75018310546875 41.607696533203125) rotate(0 -0.2474365234375 14.649520874023438)"><path d="M0 0 C-0.08 4.88, -0.41 24.42, -0.49 29.3 M0 0 C-0.08 4.88, -0.41 24.42, -0.49 29.3" stroke="#e67700" stroke-width="1" fill="none"></path></g></g></svg>